<svg width="16" height="16" viewBox="0 0 16 16" fill="none" xmlns="http://www.w3.org/2000/svg">
<g filter="url(#filter0_d_14992_13596)">
<path d="M7.14186 6.51953C7.40724 6.59548 7.56047 6.87225 7.48463 7.1377L5.48463 14.1377C5.46202 14.2166 5.42194 14.2857 5.3694 14.3418C5.27955 14.4376 5.15392 14.4956 5.02076 14.5C5.0102 14.5003 4.99917 14.5003 4.98854 14.5C4.94838 14.4987 4.90685 14.492 4.86647 14.4805C4.83348 14.471 4.80201 14.4586 4.77272 14.4434C4.67175 14.3907 4.59434 14.306 4.54908 14.2061C4.50194 14.1019 4.48983 13.9808 4.52369 13.8623L6.52369 6.8623C6.59975 6.59708 6.8765 6.44371 7.14186 6.51953ZM9.58522 0.5C9.98293 0.50004 10.3645 0.658264 10.6458 0.939453L13.5598 3.85352C13.8411 4.13478 13.9992 4.51629 13.9993 4.91406V12.5C13.9993 13.6046 13.1038 14.5 11.9993 14.5H6.41529C6.4256 14.4709 6.43796 14.4421 6.44654 14.4121L6.70729 13.5H11.9993C12.5516 13.5 12.9993 13.0523 12.9993 12.5V5.5H10.4993C9.67097 5.49986 8.99928 4.82834 8.99928 4V1.5H5.99928C5.44711 1.50014 4.99928 1.9478 4.99928 2.5V7.90234C4.66418 7.57938 4.31324 7.37111 3.99928 7.23828V2.5C3.99928 1.39552 4.89483 0.500137 5.99928 0.5H9.58522ZM9.99928 4C9.99928 4.27606 10.2233 4.49986 10.4993 4.5H12.7922L9.99928 1.70703V4ZM2.62037 8.16992C2.8001 7.96068 3.11494 7.93676 3.32447 8.11621C3.53414 8.29592 3.55887 8.61163 3.37916 8.82129L2.15846 10.2461L3.37916 11.6699C3.55887 11.8796 3.53414 12.1953 3.32447 12.375C3.11494 12.5545 2.8001 12.5305 2.62037 12.3213L1.12037 10.5713C0.959876 10.384 0.959876 10.1072 1.12037 9.91992L2.62037 8.16992ZM8.67408 8.11621C8.88368 7.93656 9.19942 7.96044 9.37916 8.16992L10.8792 9.91992C11.0397 10.1072 11.0397 10.384 10.8792 10.5713L9.37916 12.3213C9.19943 12.5308 8.8837 12.5547 8.67408 12.375C8.46458 12.1953 8.44071 11.8795 8.62037 11.6699L9.84107 10.2461L8.62037 8.82129C8.4407 8.61167 8.46453 8.29594 8.67408 8.11621Z" fill="#242424"/>
<path d="M7.14186 6.51953C7.40724 6.59548 7.56047 6.87225 7.48463 7.1377L5.48463 14.1377C5.46202 14.2166 5.42194 14.2857 5.3694 14.3418C5.27955 14.4376 5.15392 14.4956 5.02076 14.5C5.0102 14.5003 4.99917 14.5003 4.98854 14.5C4.94838 14.4987 4.90685 14.492 4.86647 14.4805C4.83348 14.471 4.80201 14.4586 4.77272 14.4434C4.67175 14.3907 4.59434 14.306 4.54908 14.2061C4.50194 14.1019 4.48983 13.9808 4.52369 13.8623L6.52369 6.8623C6.59975 6.59708 6.8765 6.44371 7.14186 6.51953ZM9.58522 0.5C9.98293 0.50004 10.3645 0.658264 10.6458 0.939453L13.5598 3.85352C13.8411 4.13478 13.9992 4.51629 13.9993 4.91406V12.5C13.9993 13.6046 13.1038 14.5 11.9993 14.5H6.41529C6.4256 14.4709 6.43796 14.4421 6.44654 14.4121L6.70729 13.5H11.9993C12.5516 13.5 12.9993 13.0523 12.9993 12.5V5.5H10.4993C9.67097 5.49986 8.99928 4.82834 8.99928 4V1.5H5.99928C5.44711 1.50014 4.99928 1.9478 4.99928 2.5V7.90234C4.66418 7.57938 4.31324 7.37111 3.99928 7.23828V2.5C3.99928 1.39552 4.89483 0.500137 5.99928 0.5H9.58522ZM9.99928 4C9.99928 4.27606 10.2233 4.49986 10.4993 4.5H12.7922L9.99928 1.70703V4ZM2.62037 8.16992C2.8001 7.96068 3.11494 7.93676 3.32447 8.11621C3.53414 8.29592 3.55887 8.61163 3.37916 8.82129L2.15846 10.2461L3.37916 11.6699C3.55887 11.8796 3.53414 12.1953 3.32447 12.375C3.11494 12.5545 2.8001 12.5305 2.62037 12.3213L1.12037 10.5713C0.959876 10.384 0.959876 10.1072 1.12037 9.91992L2.62037 8.16992ZM8.67408 8.11621C8.88368 7.93656 9.19942 7.96044 9.37916 8.16992L10.8792 9.91992C11.0397 10.1072 11.0397 10.384 10.8792 10.5713L9.37916 12.3213C9.19943 12.5308 8.8837 12.5547 8.67408 12.375C8.46458 12.1953 8.44071 11.8795 8.62037 11.6699L9.84107 10.2461L8.62037 8.82129C8.4407 8.61167 8.46453 8.29594 8.67408 8.11621Z" stroke="black"/>
</g>
<defs>
<filter id="filter0_d_14992_13596" x="-3.5" y="0" width="22" height="23.0002" filterUnits="userSpaceOnUse" color-interpolation-filters="sRGB">
<feFlood flood-opacity="0" result="BackgroundImageFix"/>
<feColorMatrix in="SourceAlpha" type="matrix" values="0 0 0 0 0 0 0 0 0 0 0 0 0 0 0 0 0 0 127 0" result="hardAlpha"/>
<feOffset dy="4"/>
<feGaussianBlur stdDeviation="2"/>
<feComposite in2="hardAlpha" operator="out"/>
<feColorMatrix type="matrix" values="0 0 0 0 0 0 0 0 0 0 0 0 0 0 0 0 0 0 0.25 0"/>
<feBlend mode="normal" in2="BackgroundImageFix" result="effect1_dropShadow_14992_13596"/>
<feBlend mode="normal" in="SourceGraphic" in2="effect1_dropShadow_14992_13596" result="shape"/>
</filter>
</defs>
</svg>
