<svg width="156" height="300" viewBox="0 0 156 300" fill="none" xmlns="http://www.w3.org/2000/svg">
<g filter="url(#filter0_d_14992_13594)">
<rect x="4" width="148" height="292" rx="5" fill="#EAEAFF"/>
<rect x="4.5" y="0.5" width="147" height="291" rx="4.5" stroke="#9747FF" stroke-dasharray="10 5"/>
<path d="M31.1419 51.0195C31.4072 51.0955 31.5605 51.3723 31.4846 51.6377L29.4846 58.6377C29.462 58.7166 29.4219 58.7857 29.3694 58.8418C29.2795 58.9376 29.1539 58.9956 29.0208 59C29.0102 59.0003 28.9992 59.0003 28.9885 59C28.9484 58.9987 28.9069 58.992 28.8665 58.9805C28.8335 58.971 28.802 58.9586 28.7727 58.9434C28.6718 58.8907 28.5943 58.806 28.5491 58.7061C28.5019 58.6019 28.4898 58.4808 28.5237 58.3623L30.5237 51.3623C30.5997 51.0971 30.8765 50.9437 31.1419 51.0195ZM33.5852 45C33.9829 45 34.3645 45.1583 34.6458 45.4395L37.5598 48.3535C37.8411 48.6348 37.9992 49.0163 37.9993 49.4141V57C37.9993 58.1046 37.1038 59 35.9993 59H30.4153C30.4256 58.9709 30.438 58.9421 30.4465 58.9121L30.7073 58H35.9993C36.5516 58 36.9993 57.5523 36.9993 57V50H34.4993C33.671 49.9999 32.9993 49.3283 32.9993 48.5V46H29.9993C29.4471 46.0001 28.9993 46.4478 28.9993 47V52.4023C28.6642 52.0794 28.3132 51.8711 27.9993 51.7383V47C27.9993 45.8955 28.8948 45.0001 29.9993 45H33.5852ZM33.9993 48.5C33.9993 48.7761 34.2233 48.9999 34.4993 49H36.7922L33.9993 46.207V48.5ZM26.6204 52.6699C26.8001 52.4607 27.1149 52.4368 27.3245 52.6162C27.5341 52.7959 27.5589 53.1116 27.3792 53.3213L26.1585 54.7461L27.3792 56.1699C27.5589 56.3796 27.5341 56.6953 27.3245 56.875C27.1149 57.0545 26.8001 57.0305 26.6204 56.8213L25.1204 55.0713C24.9599 54.884 24.9599 54.6072 25.1204 54.4199L26.6204 52.6699ZM32.6741 52.6162C32.8837 52.4366 33.1994 52.4604 33.3792 52.6699L34.8792 54.4199C35.0397 54.6072 35.0397 54.884 34.8792 55.0713L33.3792 56.8213C33.1994 57.0308 32.8837 57.0547 32.6741 56.875C32.4646 56.6953 32.4407 56.3795 32.6204 56.1699L33.8411 54.7461L32.6204 53.3213C32.4407 53.1117 32.4645 52.7959 32.6741 52.6162Z" fill="#242424"/>
<path d="M91.1419 51.0195C91.4072 51.0955 91.5605 51.3723 91.4846 51.6377L89.4846 58.6377C89.462 58.7166 89.4219 58.7857 89.3694 58.8418C89.2795 58.9376 89.1539 58.9956 89.0208 59C89.0102 59.0003 88.9992 59.0003 88.9885 59C88.9484 58.9987 88.9069 58.992 88.8665 58.9805C88.8335 58.971 88.802 58.9586 88.7727 58.9434C88.6718 58.8907 88.5943 58.806 88.5491 58.7061C88.5019 58.6019 88.4898 58.4808 88.5237 58.3623L90.5237 51.3623C90.5997 51.0971 90.8765 50.9437 91.1419 51.0195ZM92.9993 48.5C92.9993 49.3283 93.671 49.9999 94.4993 50H97.9993V57.5C97.9993 58.3284 97.3277 59 96.4993 59H92.8479L94.7903 56.709L95.6379 55.7217C96.119 55.16 96.1191 54.3311 95.6379 53.7695L94.1379 52.0195L94.0325 51.9082C93.6174 51.513 93.0211 51.3985 92.5003 51.582C92.5355 50.9478 92.1635 50.3478 91.5618 50.1074L91.4163 50.0576L91.2669 50.0234C90.5686 49.8984 89.8747 50.2837 89.6116 50.9424L89.5618 51.0879L89.1438 52.5488C88.7673 52.14 88.3586 51.8903 87.9993 51.7383V46.5C87.9993 45.6717 88.671 45.0001 89.4993 45H92.9993V48.5ZM86.6204 52.6699C86.8001 52.4607 87.1149 52.4368 87.3245 52.6162C87.5341 52.7959 87.5589 53.1116 87.3792 53.3213L86.1585 54.7461L87.3792 56.1699C87.5589 56.3796 87.5341 56.6953 87.3245 56.875C87.1149 57.0545 86.8001 57.0305 86.6204 56.8213L85.1204 55.0713C84.9599 54.884 84.9599 54.6072 85.1204 54.4199L86.6204 52.6699ZM92.6741 52.6162C92.8837 52.4366 93.1994 52.4604 93.3792 52.6699L94.8792 54.4199C95.0397 54.6072 95.0397 54.884 94.8792 55.0713L93.3792 56.8213C93.1994 57.0308 92.8837 57.0547 92.6741 56.875C92.4646 56.6953 92.4407 56.3795 92.6204 56.1699L93.8411 54.7461L92.6204 53.3213C92.4407 53.1117 92.4645 52.7959 92.6741 52.6162ZM97.7493 49H94.4993C94.2233 48.9999 93.9993 48.7761 93.9993 48.5V45.25L97.7493 49Z" fill="#242424"/>
</g>
<defs>
<filter id="filter0_d_14992_13594" x="0" y="0" width="156" height="300" filterUnits="userSpaceOnUse" color-interpolation-filters="sRGB">
<feFlood flood-opacity="0" result="BackgroundImageFix"/>
<feColorMatrix in="SourceAlpha" type="matrix" values="0 0 0 0 0 0 0 0 0 0 0 0 0 0 0 0 0 0 127 0" result="hardAlpha"/>
<feOffset dy="4"/>
<feGaussianBlur stdDeviation="2"/>
<feComposite in2="hardAlpha" operator="out"/>
<feColorMatrix type="matrix" values="0 0 0 0 0 0 0 0 0 0 0 0 0 0 0 0 0 0 0.25 0"/>
<feBlend mode="normal" in2="BackgroundImageFix" result="effect1_dropShadow_14992_13594"/>
<feBlend mode="normal" in="SourceGraphic" in2="effect1_dropShadow_14992_13594" result="shape"/>
</filter>
</defs>
</svg>
